<?xml version="1.0" encoding="UTF-8" standalone="no"?>
<!DOCTYPE svg PUBLIC "-//W3C//DTD SVG 1.1//EN" "http://www.w3.org/Graphics/SVG/1.1/DTD/svg11.dtd">
<svg width="100%" height="100%" viewBox="0 0 40 40" version="1.1" xmlns="http://www.w3.org/2000/svg" xmlns:xlink="http://www.w3.org/1999/xlink" xml:space="preserve" xmlns:serif="http://www.serif.com/" style="fill-rule:evenodd;clip-rule:evenodd;stroke-linejoin:round;stroke-miterlimit:2;">
    <g id="Background">
    </g>
    <g transform="matrix(1.04469,0,0,1.04469,-6.68142,-2.46018)">
        <circle cx="25.54" cy="21.499" r="17.23" style="fill:rgb(240,167,50);"/>
    </g>
    <g transform="matrix(2.12602e-16,3.47206,-4.14211,2.53631e-16,93.5789,-78.3824)">
        <path d="M33.52,17.764C33.52,15.365 31.197,13.418 28.335,13.418C25.474,13.418 23.151,15.365 23.151,17.764C23.151,20.162 25.474,22.109 28.335,22.109C31.197,22.109 33.52,20.162 33.52,17.764Z" style="fill:none;"/>
        <clipPath id="_clip1">
            <path d="M33.52,17.764C33.52,15.365 31.197,13.418 28.335,13.418C25.474,13.418 23.151,15.365 23.151,17.764C23.151,20.162 25.474,22.109 28.335,22.109C31.197,22.109 33.52,20.162 33.52,17.764Z"/>
        </clipPath>
        <g clip-path="url(#_clip1)">
            <g transform="matrix(3.84469e-17,-0.526316,2.13828,1.09752e-16,11.4042,24.0839)">
                <rect x="3.126" y="5.388" width="18.348" height="5.032" style="fill:rgb(34,25,25);"/>
            </g>
            <g transform="matrix(1.76357e-17,-0.241423,0.288014,1.47829e-17,22.5752,22.5921)">
                <rect x="14.204" y="8.416" width="32.427" height="31.584" style="fill:rgb(31,27,24);"/>
            </g>
            <g transform="matrix(4.05989e-17,-0.555776,0.32501,1.66818e-17,22.0838,27.9915)">
                <rect x="15.324" y="7.929" width="2.44" height="30.071" style="fill:rgb(19,15,15);"/>
                <path d="M18.198,38.886L18.198,7.043L14.89,7.043L14.89,38.886L18.198,38.886ZM17.764,7.929L15.324,7.929L15.324,38L17.764,38L17.764,7.929Z" style="fill:rgb(114,114,114);"/>
            </g>
            <g transform="matrix(1.40557,-8.26736e-32,1.46707e-32,0.289022,0.671414,11.1264)">
                <rect x="15.324" y="7.929" width="2.44" height="30.071" style="fill:rgb(19,15,15);"/>
                <path d="M17.969,38.835L17.969,7.094L15.119,7.094L15.119,38.835L17.969,38.835ZM17.764,7.929L15.324,7.929L15.324,38L17.764,38L17.764,7.929Z" style="fill:rgb(115,115,115);"/>
            </g>
            <g transform="matrix(1.76357e-17,-0.241423,0.288014,1.47829e-17,21.3694,22.2593)">
                <text x="20.635px" y="24.186px" style="font-family:'Arial-BoldMT', 'Arial', sans-serif;font-weight:700;font-size:7.315px;fill:rgb(237,139,0);">&gt;_</text>
            </g>
        </g>
        <path d="M33.52,17.764C33.52,15.365 31.197,13.418 28.335,13.418C25.474,13.418 23.151,15.365 23.151,17.764C23.151,20.162 25.474,22.109 28.335,22.109C31.197,22.109 33.52,20.162 33.52,17.764ZM32.944,17.764C32.944,19.896 30.879,21.626 28.335,21.626C25.792,21.626 23.727,19.896 23.727,17.764C23.727,15.632 25.792,13.901 28.335,13.901C30.879,13.901 32.944,15.632 32.944,17.764Z" style="fill:url(#_Linear2);"/>
    </g>
    <defs>
        <linearGradient id="_Linear2" x1="0" y1="0" x2="1" y2="0" gradientUnits="userSpaceOnUse" gradientTransform="matrix(10.3685,0,0,8.69123,23.1512,17.7637)"><stop offset="0" style="stop-color:rgb(237,139,0);stop-opacity:1"/><stop offset="1" style="stop-color:rgb(99,58,0);stop-opacity:1"/></linearGradient>
    </defs>
</svg>
