<svg id="circle_ci_logo" xmlns="http://www.w3.org/2000/svg" xmlns:xlink="http://www.w3.org/1999/xlink" width="200" height="200" viewBox="0 0 200 200">
  <defs>
    <clipPath id="clip-path">
      <rect x="5" y="29" width="95" height="81" fill="none"/>
    </clipPath>
  </defs>
  <rect id="shape" width="200" height="200"/>
  <g id="Scroll_Group_1" data-name="Scroll Group 1" transform="translate(16 -8)" clip-path="url(#clip-path)" style="isolation: isolate">
    <text id="CI" transform="translate(0 108)" fill="#fff" font-size="110" font-family="Overpass-Black, Overpass" font-weight="800"><tspan x="0" y="0">CI</tspan></text>
  </g>
  <path id="path7" d="M21.355,29.1a6.915,6.915,0,1,1,6.915,6.915A6.918,6.918,0,0,1,21.355,29.1ZM28.27,0A29.09,29.09,0,0,0,.055,21.908c0,.111-.055.166-.055.277a1.37,1.37,0,0,0,1.383,1.383H13.112a1.4,1.4,0,0,0,1.272-.83h0a15.269,15.269,0,1,1,0,12.724h0a1.4,1.4,0,0,0-1.272-.83H1.383A1.37,1.37,0,0,0,0,36.015a.5.5,0,0,0,.055.277A29.132,29.132,0,1,0,28.27,0Z" transform="translate(129.375 120)" fill="#fff"/>
</svg>
