<svg id="bitrise_ci_logo" xmlns="http://www.w3.org/2000/svg" xmlns:xlink="http://www.w3.org/1999/xlink" width="200" height="200" viewBox="0 0 200 200">
  <defs>
    <clipPath id="clip-path">
      <rect x="5" y="29" width="95" height="81" fill="none"/>
    </clipPath>
  </defs>
  <rect id="shape" width="200" height="200"/>
  <g id="Scroll_Group_1" data-name="Scroll Group 1" transform="translate(16 -8)" clip-path="url(#clip-path)" style="isolation: isolate">
    <text id="CI" transform="translate(0 108)" fill="#fff" font-size="110" font-family="Overpass-Black, Overpass" font-weight="800"><tspan x="0" y="0">CI</tspan></text>
  </g>
  <g id="bitrise" transform="translate(-577.721 -298.263)">
    <path id="Path_5" data-name="Path 5" d="M1017.952,905.6a8.917,8.917,0,0,0,8.916-8.917h-17.833A8.917,8.917,0,0,0,1017.952,905.6Z" transform="translate(-294.433 -441.825)" fill="#fff"/>
    <path id="Path_6" data-name="Path 6" d="M842.023,781.681a5.506,5.506,0,0,0-5.506,5.506h11.012A5.506,5.506,0,0,0,842.023,781.681Z" transform="translate(-138.434 -337.833)" fill="#fff"/>
    <path id="Path_7" data-name="Path 7" d="M1258.725,781.694a5.506,5.506,0,0,0-5.506,5.506h11.011A5.506,5.506,0,0,0,1258.725,781.694Z" transform="translate(-515.236 -337.845)" fill="#fff"/>
    <path id="Path_8" data-name="Path 8" d="M1063.257,416.314a4.119,4.119,0,1,0-4.12-4.119A4.119,4.119,0,0,0,1063.257,416.314Z" transform="translate(-339.738)" fill="#fff"/>
    <path id="Path_9" data-name="Path 9" d="M756.544,600.51a6.13,6.13,0,0,1-4.316,2.053c-6.883.322-17.45.706-28.708.706s-21.825-.384-28.708-.706a6.164,6.164,0,0,1-5.868-6.56c.363-5.506.854-10.38,1.459-14.488.9-6.1,2.247-12.284,3.222-16.4a6.121,6.121,0,0,1,5.609-4.728c4.991-.311,13.255-.682,24.286-.682s19.295.371,24.286.682a6.121,6.121,0,0,1,5.609,4.728c.975,4.12,2.325,10.311,3.222,16.4.6,4.108,1.1,8.982,1.459,14.488A6.113,6.113,0,0,1,756.544,600.51Zm5.54-19.8c-.925-6.286-2.311-12.642-3.311-16.868a11.6,11.6,0,0,0-10.624-8.956c-5.069-.316-13.457-.693-24.628-.693s-19.56.377-24.628.693a11.6,11.6,0,0,0-10.625,8.956c-1,4.224-2.385,10.578-3.311,16.868-.626,4.253-1.133,9.275-1.505,14.928a11.668,11.668,0,0,0,11.1,12.422c6.941.325,17.6.712,28.965.712s22.024-.387,28.965-.712a11.668,11.668,0,0,0,11.1-12.422c-.373-5.652-.879-10.675-1.505-14.928Z" transform="translate(0 -132.131)" fill="#fff"/>
  </g>
</svg>
