<svg id="Layer_1" data-name="Layer 1" xmlns="http://www.w3.org/2000/svg" viewBox="0 0 40 40"><defs><style>.cls-1{fill:#a4a049;}</style></defs><path d="M11.5,6.83h1.89l2.07,6.37H14l-.44-1.41H11.2l-.44,1.41H9.41Zm0,3.93h1.7L12.36,8Z"/><path d="M30.05,22a8.15,8.15,0,0,1-1.54,2.72A7.65,7.65,0,0,0,31.43,26a5.43,5.43,0,0,0-.79,1,7.94,7.94,0,0,1-3-1.47,9.08,9.08,0,0,1-3.19,1.54,6.61,6.61,0,0,0-.7-1.1,7.83,7.83,0,0,0,3-1.27,9.45,9.45,0,0,1-1.6-2.7H23.89V20.83h3.28a6,6,0,0,0-.37-1l1.2-.41a6.46,6.46,0,0,1,.51,1.21l-.65.2h3.35V22Zm-3.7,0a6.66,6.66,0,0,0,1.27,2,6,6,0,0,0,1.12-2Z"/><path class="cls-1" d="M21.39,15.24V2H3.47V24.76L11,18h7.57V31.27H29L36.53,38V15.24ZM10,15.24,6.26,18.55V4.79H18.61V15.24ZM33.74,31.79,30,28.49H21.39V18H33.74Z"/></svg>