<svg id="Layer_1" data-name="Layer 1" xmlns="http://www.w3.org/2000/svg" viewBox="0 0 40 40"><defs><style>.cls-1{fill:#fff;}.cls-2{fill:#a4a049;}</style></defs><path class="cls-1" d="M11.5,6.83h1.89l2.07,6.37H14l-.44-1.41H11.2l-.44,1.41H9.41Zm0,3.93H13.2L12.36,8Z"/><path class="cls-1" d="M30.05,22a8.16,8.16,0,0,1-1.54,2.72A7.72,7.72,0,0,0,31.43,26,5.26,5.26,0,0,0,30.64,27a8,8,0,0,1-3-1.47,9,9,0,0,1-3.19,1.54,7,7,0,0,0-.7-1.1,7.87,7.87,0,0,0,3-1.27A9.27,9.27,0,0,1,25.15,22H23.89V20.83h3.28a6.17,6.17,0,0,0-.37-1L28,19.42a6.3,6.3,0,0,1,.51,1.21l-.65.2h3.35V22Zm-3.7,0a6.7,6.7,0,0,0,1.27,2,6,6,0,0,0,1.12-2Z"/><path class="cls-2" d="M21.39,15.24V2H3.47V24.76L11,18h7.57V31.27H29L36.53,38V15.24ZM10,15.24,6.26,18.55V4.79H18.61V15.24ZM33.74,31.79,30,28.49H21.39V18H33.74Z"/></svg>